<svg width="300" height="300" viewBox="0 0 300 300" fill="none" xmlns="http://www.w3.org/2000/svg">
<g clip-path="url(#clip0_2_2)">
<rect width="300" height="300" fill="white"/>
<g clip-path="url(#clip1_2_2)">
<path d="M300 0H0V300H300V0Z" fill="white"/>
<path d="M26.7045 18.75H18.75V26.7045H26.7045V18.75Z" fill="black"/>
<path d="M34.6591 18.75H26.7045V26.7045H34.6591V18.75Z" fill="black"/>
<path d="M42.6136 18.75H34.6591V26.7045H42.6136V18.75Z" fill="black"/>
<path d="M50.5682 18.75H42.6136V26.7045H50.5682V18.75Z" fill="black"/>
<path d="M58.5227 18.75H50.5682V26.7045H58.5227V18.75Z" fill="black"/>
<path d="M66.4773 18.75H58.5227V26.7045H66.4773V18.75Z" fill="black"/>
<path d="M74.4318 18.75H66.4773V26.7045H74.4318V18.75Z" fill="black"/>
<path d="M90.3409 18.75H82.3864V26.7045H90.3409V18.75Z" fill="black"/>
<path d="M114.205 18.75H106.25V26.7045H114.205V18.75Z" fill="black"/>
<path d="M130.114 18.75H122.159V26.7045H130.114V18.75Z" fill="black"/>
<path d="M146.023 18.75H138.068V26.7045H146.023V18.75Z" fill="black"/>
<path d="M161.932 18.75H153.977V26.7045H161.932V18.75Z" fill="black"/>
<path d="M169.886 18.75H161.932V26.7045H169.886V18.75Z" fill="black"/>
<path d="M177.841 18.75H169.886V26.7045H177.841V18.75Z" fill="black"/>
<path d="M185.795 18.75H177.841V26.7045H185.795V18.75Z" fill="black"/>
<path d="M193.75 18.75H185.795V26.7045H193.75V18.75Z" fill="black"/>
<path d="M217.614 18.75H209.659V26.7045H217.614V18.75Z" fill="black"/>
<path d="M233.523 18.75H225.568V26.7045H233.523V18.75Z" fill="black"/>
<path d="M241.477 18.75H233.523V26.7045H241.477V18.75Z" fill="black"/>
<path d="M249.432 18.75H241.477V26.7045H249.432V18.75Z" fill="black"/>
<path d="M257.386 18.75H249.432V26.7045H257.386V18.75Z" fill="black"/>
<path d="M265.341 18.75H257.386V26.7045H265.341V18.75Z" fill="black"/>
<path d="M273.295 18.75H265.341V26.7045H273.295V18.75Z" fill="black"/>
<path d="M281.25 18.75H273.295V26.7045H281.25V18.75Z" fill="black"/>
<path d="M26.7045 26.7045H18.75V34.6591H26.7045V26.7045Z" fill="black"/>
<path d="M74.4318 26.7045H66.4773V34.6591H74.4318V26.7045Z" fill="black"/>
<path d="M98.2955 26.7045H90.3409V34.6591H98.2955V26.7045Z" fill="black"/>
<path d="M106.25 26.7045H98.2955V34.6591H106.25V26.7045Z" fill="black"/>
<path d="M130.114 26.7045H122.159V34.6591H130.114V26.7045Z" fill="black"/>
<path d="M146.023 26.7045H138.068V34.6591H146.023V26.7045Z" fill="black"/>
<path d="M153.977 26.7045H146.023V34.6591H153.977V26.7045Z" fill="black"/>
<path d="M177.841 26.7045H169.886L169.886 34.6591H177.841V26.7045Z" fill="black"/>
<path d="M185.795 26.7045H177.841V34.6591H185.795V26.7045Z" fill="black"/>
<path d="M193.75 26.7045H185.795V34.6591H193.75V26.7045Z" fill="black"/>
<path d="M209.659 26.7045H201.705V34.6591H209.659V26.7045Z" fill="black"/>
<path d="M233.523 26.7045H225.568V34.6591H233.523V26.7045Z" fill="black"/>
<path d="M281.25 26.7045H273.295V34.6591H281.25V26.7045Z" fill="black"/>
<path d="M26.7045 34.6591H18.75V42.6136H26.7045V34.6591Z" fill="black"/>
<path d="M42.6136 34.6591H34.6591V42.6136H42.6136V34.6591Z" fill="black"/>
<path d="M50.5682 34.6591H42.6136V42.6136H50.5682V34.6591Z" fill="black"/>
<path d="M58.5227 34.6591H50.5682V42.6136H58.5227V34.6591Z" fill="black"/>
<path d="M74.4318 34.6591H66.4773V42.6136H74.4318V34.6591Z" fill="black"/>
<path d="M90.3409 34.6591H82.3864V42.6136H90.3409V34.6591Z" fill="black"/>
<path d="M106.25 34.6591H98.2955V42.6136H106.25V34.6591Z" fill="black"/>
<path d="M114.205 34.6591H106.25V42.6136H114.205V34.6591Z" fill="black"/>
<path d="M122.159 34.6591H114.205V42.6136H122.159V34.6591Z" fill="black"/>
<path d="M138.068 34.6591H130.114V42.6136H138.068V34.6591Z" fill="black"/>
<path d="M146.023 34.6591H138.068V42.6136H146.023V34.6591Z" fill="black"/>
<path d="M169.886 34.6591H161.932V42.6136H169.886L169.886 34.6591Z" fill="black"/>
<path d="M177.841 34.6591H169.886L169.886 42.6136H177.841V34.6591Z" fill="black"/>
<path d="M185.795 34.6591H177.841V42.6136H185.795V34.6591Z" fill="black"/>
<path d="M209.659 34.6591H201.705V42.6136H209.659V34.6591Z" fill="black"/>
<path d="M217.614 34.6591H209.659V42.6136H217.614V34.6591Z" fill="black"/>
<path d="M233.523 34.6591H225.568V42.6136H233.523V34.6591Z" fill="black"/>
<path d="M249.432 34.6591H241.477V42.6136H249.432V34.6591Z" fill="black"/>
<path d="M257.386 34.6591H249.432V42.6136H257.386V34.6591Z" fill="black"/>
<path d="M265.341 34.6591H257.386V42.6136H265.341V34.6591Z" fill="black"/>
<path d="M281.25 34.6591H273.295V42.6136H281.25V34.6591Z" fill="black"/>
<path d="M26.7045 42.6136H18.75V50.5682H26.7045V42.6136Z" fill="black"/>
<path d="M42.6136 42.6136H34.6591V50.5682H42.6136V42.6136Z" fill="black"/>
<path d="M50.5682 42.6136H42.6136V50.5682H50.5682V42.6136Z" fill="black"/>
<path d="M58.5227 42.6136H50.5682V50.5682H58.5227V42.6136Z" fill="black"/>
<path d="M74.4318 42.6136H66.4773V50.5682H74.4318V42.6136Z" fill="black"/>
<path d="M90.3409 42.6136H82.3864V50.5682H90.3409V42.6136Z" fill="black"/>
<path d="M130.114 42.6136H122.159V50.5682H130.114V42.6136Z" fill="black"/>
<path d="M138.068 42.6136H130.114V50.5682H138.068V42.6136Z" fill="black"/>
<path d="M146.023 42.6136H138.068V50.5682H146.023V42.6136Z" fill="black"/>
<path d="M153.977 42.6136H146.023V50.5682H153.977V42.6136Z" fill="black"/>
<path d="M161.932 42.6136H153.977V50.5682H161.932V42.6136Z" fill="black"/>
<path d="M177.841 42.6136H169.886L169.886 50.5682H177.841V42.6136Z" fill="black"/>
<path d="M193.75 42.6136H185.795V50.5682H193.75V42.6136Z" fill="black"/>
<path d="M233.523 42.6136H225.568V50.5682H233.523V42.6136Z" fill="black"/>
<path d="M249.432 42.6136H241.477V50.5682H249.432V42.6136Z" fill="black"/>
<path d="M257.386 42.6136H249.432V50.5682H257.386V42.6136Z" fill="black"/>
<path d="M265.341 42.6136H257.386V50.5682H265.341V42.6136Z" fill="black"/>
<path d="M281.25 42.6136H273.295V50.5682H281.25V42.6136Z" fill="black"/>
<path d="M26.7045 50.5682H18.75V58.5227H26.7045V50.5682Z" fill="black"/>
<path d="M42.6136 50.5682H34.6591V58.5227H42.6136V50.5682Z" fill="black"/>
<path d="M50.5682 50.5682H42.6136V58.5227H50.5682V50.5682Z" fill="black"/>
<path d="M58.5227 50.5682H50.5682V58.5227H58.5227V50.5682Z" fill="black"/>
<path d="M74.4318 50.5682H66.4773V58.5227H74.4318V50.5682Z" fill="black"/>
<path d="M114.205 50.5682H106.25V58.5227H114.205V50.5682Z" fill="black"/>
<path d="M138.068 50.5682H130.114V58.5227H138.068V50.5682Z" fill="black"/>
<path d="M153.977 50.5682H146.023V58.5227H153.977V50.5682Z" fill="black"/>
<path d="M161.932 50.5682H153.977V58.5227H161.932V50.5682Z" fill="black"/>
<path d="M169.886 50.5682H161.932V58.5227H169.886L169.886 50.5682Z" fill="black"/>
<path d="M201.705 50.5682H193.75V58.5227H201.705V50.5682Z" fill="black"/>
<path d="M209.659 50.5682H201.705V58.5227H209.659V50.5682Z" fill="black"/>
<path d="M233.523 50.5682H225.568V58.5227H233.523V50.5682Z" fill="black"/>
<path d="M249.432 50.5682H241.477V58.5227H249.432V50.5682Z" fill="black"/>
<path d="M257.386 50.5682H249.432V58.5227H257.386V50.5682Z" fill="black"/>
<path d="M265.341 50.5682H257.386V58.5227H265.341V50.5682Z" fill="black"/>
<path d="M281.25 50.5682H273.295V58.5227H281.25V50.5682Z" fill="black"/>
<path d="M26.7045 58.5227H18.75V66.4773H26.7045V58.5227Z" fill="black"/>
<path d="M74.4318 58.5227H66.4773V66.4773H74.4318V58.5227Z" fill="black"/>
<path d="M90.3409 58.5227H82.3864V66.4773H90.3409V58.5227Z" fill="black"/>
<path d="M98.2955 58.5227H90.3409V66.4773H98.2955V58.5227Z" fill="black"/>
<path d="M122.159 58.5227H114.205V66.4773H122.159V58.5227Z" fill="black"/>
<path d="M138.068 58.5227H130.114V66.4773H138.068V58.5227Z" fill="black"/>
<path d="M146.023 58.5227H138.068V66.4773H146.023V58.5227Z" fill="black"/>
<path d="M161.932 58.5227H153.977V66.4773H161.932V58.5227Z" fill="black"/>
<path d="M185.795 58.5227H177.841V66.4773H185.795V58.5227Z" fill="black"/>
<path d="M193.75 58.5227H185.795V66.4773H193.75V58.5227Z" fill="black"/>
<path d="M233.523 58.5227H225.568V66.4773H233.523V58.5227Z" fill="black"/>
<path d="M281.25 58.5227H273.295V66.4773H281.25V58.5227Z" fill="black"/>
<path d="M26.7045 66.4773H18.75V74.4318H26.7045V66.4773Z" fill="black"/>
<path d="M34.6591 66.4773H26.7045V74.4318H34.6591V66.4773Z" fill="black"/>
<path d="M42.6136 66.4773H34.6591V74.4318H42.6136V66.4773Z" fill="black"/>
<path d="M50.5682 66.4773H42.6136V74.4318H50.5682V66.4773Z" fill="black"/>
<path d="M58.5227 66.4773H50.5682V74.4318H58.5227V66.4773Z" fill="black"/>
<path d="M66.4773 66.4773H58.5227V74.4318H66.4773V66.4773Z" fill="black"/>
<path d="M74.4318 66.4773H66.4773V74.4318H74.4318V66.4773Z" fill="black"/>
<path d="M90.3409 66.4773H82.3864V74.4318H90.3409V66.4773Z" fill="black"/>
<path d="M106.25 66.4773H98.2955V74.4318H106.25V66.4773Z" fill="black"/>
<path d="M122.159 66.4773H114.205V74.4318H122.159V66.4773Z" fill="black"/>
<path d="M138.068 66.4773H130.114V74.4318H138.068V66.4773Z" fill="black"/>
<path d="M153.977 66.4773H146.023V74.4318H153.977V66.4773Z" fill="black"/>
<path d="M169.886 66.4773H161.932V74.4318H169.886V66.4773Z" fill="black"/>
<path d="M185.795 66.4773H177.841V74.4318H185.795V66.4773Z" fill="black"/>
<path d="M201.705 66.4773H193.75V74.4318H201.705V66.4773Z" fill="black"/>
<path d="M217.614 66.4773H209.659V74.4318H217.614V66.4773Z" fill="black"/>
<path d="M233.523 66.4773H225.568V74.4318H233.523V66.4773Z" fill="black"/>
<path d="M241.477 66.4773H233.523V74.4318H241.477V66.4773Z" fill="black"/>
<path d="M249.432 66.4773H241.477V74.4318H249.432V66.4773Z" fill="black"/>
<path d="M257.386 66.4773H249.432V74.4318H257.386V66.4773Z" fill="black"/>
<path d="M265.341 66.4773H257.386V74.4318H265.341V66.4773Z" fill="black"/>
<path d="M273.295 66.4773H265.341V74.4318H273.295V66.4773Z" fill="black"/>
<path d="M281.25 66.4773H273.295V74.4318H281.25V66.4773Z" fill="black"/>
<path d="M90.3409 74.4318H82.3864V82.3864H90.3409V74.4318Z" fill="black"/>
<path d="M98.2955 74.4318H90.3409V82.3864H98.2955V74.4318Z" fill="black"/>
<path d="M106.25 74.4318H98.2955V82.3864H106.25V74.4318Z" fill="black"/>
<path d="M114.205 74.4318H106.25V82.3864H114.205V74.4318Z" fill="black"/>
<path d="M122.159 74.4318H114.205V82.3864H122.159V74.4318Z" fill="black"/>
<path d="M138.068 74.4318H130.114V82.3864H138.068V74.4318Z" fill="black"/>
<path d="M169.886 74.4318H161.932V82.3864H169.886V74.4318Z" fill="black"/>
<path d="M177.841 74.4318H169.886V82.3864H177.841V74.4318Z" fill="black"/>
<path d="M185.795 74.4318H177.841V82.3864H185.795V74.4318Z" fill="black"/>
<path d="M193.75 74.4318H185.795V82.3864H193.75V74.4318Z" fill="black"/>
<path d="M217.614 74.4318H209.659V82.3864H217.614V74.4318Z" fill="black"/>
<path d="M26.7045 82.3864H18.75V90.3409H26.7045V82.3864Z" fill="black"/>
<path d="M34.6591 82.3864H26.7045V90.3409H34.6591V82.3864Z" fill="black"/>
<path d="M50.5682 82.3864H42.6136V90.3409H50.5682V82.3864Z" fill="black"/>
<path d="M74.4318 82.3864H66.4773V90.3409H74.4318V82.3864Z" fill="black"/>
<path d="M82.3864 82.3864H74.4318V90.3409H82.3864V82.3864Z" fill="black"/>
<path d="M98.2955 82.3864H90.3409V90.3409H98.2955V82.3864Z" fill="black"/>
<path d="M106.25 82.3864H98.2955V90.3409H106.25V82.3864Z" fill="black"/>
<path d="M146.023 82.3864H138.068V90.3409H146.023V82.3864Z" fill="black"/>
<path d="M153.977 82.3864H146.023V90.3409H153.977V82.3864Z" fill="black"/>
<path d="M161.932 82.3864H153.977V90.3409H161.932V82.3864Z" fill="black"/>
<path d="M169.886 82.3864H161.932V90.3409H169.886V82.3864Z" fill="black"/>
<path d="M225.568 82.3864H217.614V90.3409H225.568V82.3864Z" fill="black"/>
<path d="M233.523 82.3864H225.568V90.3409H233.523V82.3864Z" fill="black"/>
<path d="M241.477 82.3864H233.523V90.3409H241.477V82.3864Z" fill="black"/>
<path d="M257.386 82.3864H249.432V90.3409H257.386V82.3864Z" fill="black"/>
<path d="M265.341 82.3864H257.386V90.3409H265.341V82.3864Z" fill="black"/>
<path d="M281.25 82.3864H273.295V90.3409H281.25V82.3864Z" fill="black"/>
<path d="M50.5682 90.3409H42.6136V98.2955H50.5682V90.3409Z" fill="black"/>
<path d="M82.3864 90.3409H74.4318V98.2955H82.3864V90.3409Z" fill="black"/>
<path d="M90.3409 90.3409H82.3864V98.2955H90.3409V90.3409Z" fill="black"/>
<path d="M98.2955 90.3409H90.3409V98.2955H98.2955V90.3409Z" fill="black"/>
<path d="M122.159 90.3409H114.205V98.2955H122.159V90.3409Z" fill="black"/>
<path d="M138.068 90.3409H130.114V98.2955H138.068V90.3409Z" fill="black"/>
<path d="M177.841 90.3409H169.886L169.886 98.2955H177.841V90.3409Z" fill="black"/>
<path d="M185.795 90.3409H177.841V98.2955H185.795V90.3409Z" fill="black"/>
<path d="M201.705 90.3409H193.75V98.2955H201.705V90.3409Z" fill="black"/>
<path d="M233.523 90.3409H225.568V98.2955H233.523V90.3409Z" fill="black"/>
<path d="M241.477 90.3409H233.523V98.2955H241.477V90.3409Z" fill="black"/>
<path d="M249.432 90.3409H241.477V98.2955H249.432V90.3409Z" fill="black"/>
<path d="M265.341 90.3409H257.386V98.2955H265.341V90.3409Z" fill="black"/>
<path d="M273.295 90.3409H265.341V98.2955H273.295V90.3409Z" fill="black"/>
<path d="M26.7045 98.2955H18.75V106.25H26.7045V98.2955Z" fill="black"/>
<path d="M34.6591 98.2955H26.7045V106.25H34.6591V98.2955Z" fill="black"/>
<path d="M42.6136 98.2955H34.6591V106.25H42.6136V98.2955Z" fill="black"/>
<path d="M58.5227 98.2955H50.5682V106.25H58.5227V98.2955Z" fill="black"/>
<path d="M74.4318 98.2955H66.4773V106.25H74.4318V98.2955Z" fill="black"/>
<path d="M98.2955 98.2955H90.3409V106.25H98.2955V98.2955Z" fill="black"/>
<path d="M114.205 98.2955H106.25V106.25H114.205V98.2955Z" fill="black"/>
<path d="M122.159 98.2955H114.205V106.25H122.159V98.2955Z" fill="black"/>
<path d="M153.977 98.2955H146.023V106.25H153.977V98.2955Z" fill="black"/>
<path d="M185.795 98.2955H177.841V106.25H185.795V98.2955Z" fill="black"/>
<path d="M193.75 98.2955H185.795V106.25H193.75V98.2955Z" fill="black"/>
<path d="M201.705 98.2955H193.75V106.25H201.705V98.2955Z" fill="black"/>
<path d="M209.659 98.2955H201.705V106.25H209.659V98.2955Z" fill="black"/>
<path d="M225.568 98.2955H217.614V106.25H225.568V98.2955Z" fill="black"/>
<path d="M233.523 98.2955H225.568V106.25H233.523V98.2955Z" fill="black"/>
<path d="M273.295 98.2955H265.341V106.25H273.295V98.2955Z" fill="black"/>
<path d="M281.25 98.2955H273.295V106.25H281.25V98.2955Z" fill="black"/>
<path d="M26.7045 106.25H18.75V114.205H26.7045V106.25Z" fill="black"/>
<path d="M42.6136 106.25H34.6591V114.205H42.6136V106.25Z" fill="black"/>
<path d="M50.5682 106.25H42.6136V114.205H50.5682V106.25Z" fill="black"/>
<path d="M98.2955 106.25H90.3409V114.205H98.2955V106.25Z" fill="black"/>
<path d="M138.068 106.25H130.114V114.205H138.068V106.25Z" fill="black"/>
<path d="M169.886 106.25H161.932V114.205H169.886V106.25Z" fill="black"/>
<path d="M177.841 106.25H169.886V114.205H177.841V106.25Z" fill="black"/>
<path d="M185.795 106.25H177.841V114.205H185.795V106.25Z" fill="black"/>
<path d="M193.75 106.25H185.795V114.205H193.75V106.25Z" fill="black"/>
<path d="M209.659 106.25H201.705V114.205H209.659V106.25Z" fill="black"/>
<path d="M217.614 106.25H209.659V114.205H217.614V106.25Z" fill="black"/>
<path d="M225.568 106.25H217.614V114.205H225.568V106.25Z" fill="black"/>
<path d="M233.523 106.25H225.568V114.205H233.523V106.25Z" fill="black"/>
<path d="M241.477 106.25H233.523V114.205H241.477V106.25Z" fill="black"/>
<path d="M249.432 106.25H241.477V114.205H249.432V106.25Z" fill="black"/>
<path d="M257.386 106.25H249.432V114.205H257.386V106.25Z" fill="black"/>
<path d="M265.341 106.25H257.386V114.205H265.341V106.25Z" fill="black"/>
<path d="M281.25 106.25H273.295V114.205H281.25V106.25Z" fill="black"/>
<path d="M34.6591 114.205H26.7045V122.159H34.6591V114.205Z" fill="black"/>
<path d="M66.4773 114.205H58.5227V122.159H66.4773V114.205Z" fill="black"/>
<path d="M74.4318 114.205H66.4773V122.159H74.4318V114.205Z" fill="black"/>
<path d="M82.3864 114.205H74.4318V122.159H82.3864V114.205Z" fill="black"/>
<path d="M106.25 114.205H98.2955V122.159H106.25V114.205Z" fill="black"/>
<path d="M114.205 114.205H106.25V122.159H114.205V114.205Z" fill="black"/>
<path d="M138.068 114.205H130.114V122.159H138.068V114.205Z" fill="black"/>
<path d="M153.977 114.205H146.023V122.159H153.977V114.205Z" fill="black"/>
<path d="M169.886 114.205H161.932V122.159H169.886V114.205Z" fill="black"/>
<path d="M193.75 114.205H185.795V122.159H193.75V114.205Z" fill="black"/>
<path d="M201.705 114.205H193.75V122.159H201.705V114.205Z" fill="black"/>
<path d="M209.659 114.205H201.705V122.159H209.659V114.205Z" fill="black"/>
<path d="M233.523 114.205H225.568V122.159H233.523V114.205Z" fill="black"/>
<path d="M265.341 114.205H257.386V122.159H265.341V114.205Z" fill="black"/>
<path d="M42.6136 122.159H34.6591V130.114H42.6136V122.159Z" fill="black"/>
<path d="M66.4773 122.159H58.5227V130.114H66.4773V122.159Z" fill="black"/>
<path d="M98.2955 122.159H90.3409V130.114H98.2955V122.159Z" fill="black"/>
<path d="M106.25 122.159H98.2955V130.114H106.25V122.159Z" fill="black"/>
<path d="M138.068 122.159H130.114V130.114H138.068V122.159Z" fill="black"/>
<path d="M153.977 122.159H146.023V130.114H153.977V122.159Z" fill="black"/>
<path d="M161.932 122.159H153.977V130.114H161.932V122.159Z" fill="black"/>
<path d="M177.841 122.159H169.886L169.886 130.114H177.841V122.159Z" fill="black"/>
<path d="M209.659 122.159H201.705V130.114H209.659V122.159Z" fill="black"/>
<path d="M225.568 122.159H217.614V130.114H225.568V122.159Z" fill="black"/>
<path d="M249.432 122.159H241.477V130.114H249.432V122.159Z" fill="black"/>
<path d="M257.386 122.159H249.432V130.114H257.386V122.159Z" fill="black"/>
<path d="M281.25 122.159H273.295V130.114H281.25V122.159Z" fill="black"/>
<path d="M26.7045 130.114H18.75V138.068H26.7045V130.114Z" fill="black"/>
<path d="M34.6591 130.114H26.7045V138.068H34.6591V130.114Z" fill="black"/>
<path d="M42.6136 130.114H34.6591V138.068H42.6136V130.114Z" fill="black"/>
<path d="M74.4318 130.114H66.4773V138.068H74.4318V130.114Z" fill="black"/>
<path d="M82.3864 130.114H74.4318V138.068H82.3864V130.114Z" fill="black"/>
<path d="M122.159 130.114H114.205V138.068H122.159V130.114Z" fill="black"/>
<path d="M130.114 130.114H122.159V138.068H130.114V130.114Z" fill="black"/>
<path d="M138.068 130.114H130.114V138.068H138.068V130.114Z" fill="black"/>
<path d="M177.841 130.114H169.886V138.068H177.841V130.114Z" fill="black"/>
<path d="M193.75 130.114H185.795V138.068H193.75V130.114Z" fill="black"/>
<path d="M201.705 130.114H193.75V138.068H201.705V130.114Z" fill="black"/>
<path d="M225.568 130.114H217.614V138.068H225.568V130.114Z" fill="black"/>
<path d="M233.523 130.114H225.568V138.068H233.523V130.114Z" fill="black"/>
<path d="M249.432 130.114H241.477V138.068H249.432V130.114Z" fill="black"/>
<path d="M257.386 130.114H249.432V138.068H257.386V130.114Z" fill="black"/>
<path d="M265.341 130.114H257.386V138.068H265.341V130.114Z" fill="black"/>
<path d="M273.295 130.114H265.341V138.068H273.295V130.114Z" fill="black"/>
<path d="M50.5682 138.068H42.6136V146.023H50.5682V138.068Z" fill="black"/>
<path d="M66.4773 138.068H58.5227V146.023H66.4773V138.068Z" fill="black"/>
<path d="M82.3864 138.068H74.4318V146.023H82.3864V138.068Z" fill="black"/>
<path d="M90.3409 138.068H82.3864V146.023H90.3409V138.068Z" fill="black"/>
<path d="M122.159 138.068H114.205V146.023H122.159V138.068Z" fill="black"/>
<path d="M146.023 138.068H138.068V146.023H146.023V138.068Z" fill="black"/>
<path d="M161.932 138.068H153.977V146.023H161.932V138.068Z" fill="black"/>
<path d="M169.886 138.068H161.932V146.023H169.886L169.886 138.068Z" fill="black"/>
<path d="M177.841 138.068H169.886L169.886 146.023H177.841V138.068Z" fill="black"/>
<path d="M185.795 138.068H177.841V146.023H185.795V138.068Z" fill="black"/>
<path d="M193.75 138.068H185.795V146.023H193.75V138.068Z" fill="black"/>
<path d="M201.705 138.068H193.75V146.023H201.705V138.068Z" fill="black"/>
<path d="M209.659 138.068H201.705V146.023H209.659V138.068Z" fill="black"/>
<path d="M225.568 138.068H217.614V146.023H225.568V138.068Z" fill="black"/>
<path d="M265.341 138.068H257.386V146.023H265.341V138.068Z" fill="black"/>
<path d="M26.7045 146.023H18.75V153.977H26.7045V146.023Z" fill="black"/>
<path d="M42.6136 146.023H34.6591V153.977H42.6136V146.023Z" fill="black"/>
<path d="M58.5227 146.023H50.5682V153.977H58.5227V146.023Z" fill="black"/>
<path d="M66.4773 146.023H58.5227V153.977H66.4773V146.023Z" fill="black"/>
<path d="M74.4318 146.023H66.4773V153.977H74.4318V146.023Z" fill="black"/>
<path d="M82.3864 146.023H74.4318V153.977H82.3864V146.023Z" fill="black"/>
<path d="M98.2955 146.023H90.3409V153.977H98.2955V146.023Z" fill="black"/>
<path d="M106.25 146.023H98.2955V153.977H106.25V146.023Z" fill="black"/>
<path d="M114.205 146.023H106.25V153.977H114.205V146.023Z" fill="black"/>
<path d="M122.159 146.023H114.205V153.977H122.159V146.023Z" fill="black"/>
<path d="M177.841 146.023H169.886L169.886 153.977H177.841V146.023Z" fill="black"/>
<path d="M185.795 146.023H177.841V153.977H185.795V146.023Z" fill="black"/>
<path d="M193.75 146.023H185.795V153.977H193.75V146.023Z" fill="black"/>
<path d="M233.523 146.023H225.568V153.977H233.523V146.023Z" fill="black"/>
<path d="M249.432 146.023H241.477V153.977H249.432V146.023Z" fill="black"/>
<path d="M257.386 146.023H249.432V153.977H257.386V146.023Z" fill="black"/>
<path d="M265.341 146.023H257.386V153.977H265.341V146.023Z" fill="black"/>
<path d="M281.25 146.023H273.295V153.977H281.25V146.023Z" fill="black"/>
<path d="M34.6591 153.977H26.7045V161.932H34.6591V153.977Z" fill="black"/>
<path d="M58.5227 153.977H50.5682V161.932H58.5227V153.977Z" fill="black"/>
<path d="M66.4773 153.977H58.5227V161.932H66.4773V153.977Z" fill="black"/>
<path d="M82.3864 153.977H74.4318V161.932H82.3864V153.977Z" fill="black"/>
<path d="M90.3409 153.977H82.3864V161.932H90.3409V153.977Z" fill="black"/>
<path d="M98.2955 153.977H90.3409V161.932H98.2955V153.977Z" fill="black"/>
<path d="M114.205 153.977H106.25V161.932H114.205V153.977Z" fill="black"/>
<path d="M138.068 153.977H130.114V161.932H138.068V153.977Z" fill="black"/>
<path d="M177.841 153.977H169.886V161.932H177.841V153.977Z" fill="black"/>
<path d="M217.614 153.977H209.659V161.932H217.614V153.977Z" fill="black"/>
<path d="M233.523 153.977H225.568V161.932H233.523V153.977Z" fill="black"/>
<path d="M241.477 153.977H233.523V161.932H241.477V153.977Z" fill="black"/>
<path d="M249.432 153.977H241.477V161.932H249.432V153.977Z" fill="black"/>
<path d="M273.295 153.977H265.341V161.932H273.295V153.977Z" fill="black"/>
<path d="M281.25 153.977H273.295V161.932H281.25V153.977Z" fill="black"/>
<path d="M42.6136 161.932H34.6591V169.886H42.6136V161.932Z" fill="black"/>
<path d="M50.5682 161.932H42.6136V169.886H50.5682V161.932Z" fill="black"/>
<path d="M58.5227 161.932H50.5682V169.886H58.5227V161.932Z" fill="black"/>
<path d="M74.4318 161.932H66.4773V169.886H74.4318V161.932Z" fill="black"/>
<path d="M82.3864 161.932H74.4318V169.886H82.3864V161.932Z" fill="black"/>
<path d="M98.2955 161.932H90.3409V169.886H98.2955V161.932Z" fill="black"/>
<path d="M106.25 161.932H98.2955V169.886H106.25V161.932Z" fill="black"/>
<path d="M138.068 161.932H130.114V169.886H138.068V161.932Z" fill="black"/>
<path d="M146.023 161.932H138.068V169.886H146.023V161.932Z" fill="black"/>
<path d="M153.977 161.932H146.023V169.886H153.977V161.932Z" fill="black"/>
<path d="M161.932 161.932H153.977V169.886H161.932V161.932Z" fill="black"/>
<path d="M169.886 161.932H161.932V169.886H169.886L169.886 161.932Z" fill="black"/>
<path d="M177.841 161.932H169.886L169.886 169.886H177.841V161.932Z" fill="black"/>
<path d="M201.705 161.932H193.75V169.886H201.705V161.932Z" fill="black"/>
<path d="M209.659 161.932H201.705V169.886H209.659V161.932Z" fill="black"/>
<path d="M233.523 161.932H225.568V169.886H233.523V161.932Z" fill="black"/>
<path d="M241.477 161.932H233.523V169.886H241.477V161.932Z" fill="black"/>
<path d="M249.432 161.932H241.477V169.886H249.432V161.932Z" fill="black"/>
<path d="M273.295 161.932H265.341V169.886H273.295V161.932Z" fill="black"/>
<path d="M281.25 161.932H273.295V169.886H281.25V161.932Z" fill="black"/>
<path d="M26.7045 169.886H18.75V177.841H26.7045V169.886Z" fill="black"/>
<path d="M42.6136 169.886H34.6591V177.841H42.6136V169.886Z" fill="black"/>
<path d="M82.3864 169.886H74.4318V177.841H82.3864V169.886Z" fill="black"/>
<path d="M98.2955 169.886H90.3409V177.841H98.2955V169.886Z" fill="black"/>
<path d="M122.159 169.886H114.205V177.841H122.159V169.886Z" fill="black"/>
<path d="M138.068 169.886H130.114V177.841H138.068V169.886Z" fill="black"/>
<path d="M177.841 169.886H169.886L169.886 177.841H177.841V169.886Z" fill="black"/>
<path d="M185.795 169.886L177.841 169.886V177.841H185.795V169.886Z" fill="black"/>
<path d="M201.705 169.886H193.75V177.841H201.705V169.886Z" fill="black"/>
<path d="M217.614 169.886L209.659 169.886V177.841H217.614V169.886Z" fill="black"/>
<path d="M225.568 169.886L217.614 169.886V177.841H225.568V169.886Z" fill="black"/>
<path d="M233.523 169.886H225.568V177.841H233.523V169.886Z" fill="black"/>
<path d="M241.477 169.886H233.523V177.841H241.477V169.886Z" fill="black"/>
<path d="M249.432 169.886H241.477V177.841H249.432V169.886Z" fill="black"/>
<path d="M257.386 169.886L249.432 169.886V177.841H257.386V169.886Z" fill="black"/>
<path d="M281.25 169.886H273.295V177.841H281.25V169.886Z" fill="black"/>
<path d="M26.7045 177.841H18.75V185.795H26.7045V177.841Z" fill="black"/>
<path d="M34.6591 177.841H26.7045V185.795H34.6591V177.841Z" fill="black"/>
<path d="M42.6136 177.841H34.6591V185.795H42.6136V177.841Z" fill="black"/>
<path d="M74.4318 177.841H66.4773V185.795H74.4318V177.841Z" fill="black"/>
<path d="M90.3409 177.841H82.3864V185.795H90.3409V177.841Z" fill="black"/>
<path d="M98.2955 177.841H90.3409V185.795H98.2955V177.841Z" fill="black"/>
<path d="M114.205 177.841H106.25V185.795H114.205V177.841Z" fill="black"/>
<path d="M122.159 177.841H114.205V185.795H122.159V177.841Z" fill="black"/>
<path d="M130.114 177.841H122.159V185.795H130.114V177.841Z" fill="black"/>
<path d="M138.068 177.841H130.114V185.795H138.068V177.841Z" fill="black"/>
<path d="M153.977 177.841H146.023V185.795H153.977V177.841Z" fill="black"/>
<path d="M161.932 177.841H153.977V185.795H161.932V177.841Z" fill="black"/>
<path d="M177.841 177.841H169.886V185.795H177.841V177.841Z" fill="black"/>
<path d="M193.75 177.841H185.795V185.795H193.75V177.841Z" fill="black"/>
<path d="M201.705 177.841H193.75V185.795H201.705V177.841Z" fill="black"/>
<path d="M209.659 177.841H201.705V185.795H209.659V177.841Z" fill="black"/>
<path d="M233.523 177.841H225.568V185.795H233.523V177.841Z" fill="black"/>
<path d="M241.477 177.841H233.523V185.795H241.477V177.841Z" fill="black"/>
<path d="M265.341 177.841H257.386V185.795H265.341V177.841Z" fill="black"/>
<path d="M273.295 177.841H265.341V185.795H273.295V177.841Z" fill="black"/>
<path d="M26.7045 185.795H18.75V193.75H26.7045V185.795Z" fill="black"/>
<path d="M34.6591 185.795H26.7045V193.75H34.6591V185.795Z" fill="black"/>
<path d="M50.5682 185.795H42.6136V193.75H50.5682V185.795Z" fill="black"/>
<path d="M90.3409 185.795H82.3864V193.75H90.3409V185.795Z" fill="black"/>
<path d="M106.25 185.795H98.2955V193.75H106.25V185.795Z" fill="black"/>
<path d="M114.205 185.795H106.25V193.75H114.205V185.795Z" fill="black"/>
<path d="M122.159 185.795H114.205V193.75H122.159V185.795Z" fill="black"/>
<path d="M130.114 185.795H122.159V193.75H130.114V185.795Z" fill="black"/>
<path d="M146.023 185.795H138.068V193.75H146.023V185.795Z" fill="black"/>
<path d="M153.977 185.795H146.023V193.75H153.977V185.795Z" fill="black"/>
<path d="M169.886 185.795H161.932V193.75H169.886L169.886 185.795Z" fill="black"/>
<path d="M225.568 185.795H217.614V193.75H225.568V185.795Z" fill="black"/>
<path d="M233.523 185.795H225.568V193.75H233.523V185.795Z" fill="black"/>
<path d="M281.25 185.795H273.295V193.75H281.25V185.795Z" fill="black"/>
<path d="M74.4318 193.75H66.4773V201.705H74.4318V193.75Z" fill="black"/>
<path d="M82.3864 193.75H74.4318V201.705H82.3864V193.75Z" fill="black"/>
<path d="M106.25 193.75H98.2955V201.705H106.25V193.75Z" fill="black"/>
<path d="M114.205 193.75H106.25V201.705H114.205V193.75Z" fill="black"/>
<path d="M122.159 193.75H114.205V201.705H122.159V193.75Z" fill="black"/>
<path d="M153.977 193.75H146.023V201.705H153.977V193.75Z" fill="black"/>
<path d="M161.932 193.75H153.977V201.705H161.932V193.75Z" fill="black"/>
<path d="M177.841 193.75H169.886L169.886 201.705H177.841V193.75Z" fill="black"/>
<path d="M185.795 193.75H177.841V201.705H185.795V193.75Z" fill="black"/>
<path d="M193.75 193.75H185.795V201.705H193.75V193.75Z" fill="black"/>
<path d="M201.705 193.75H193.75V201.705H201.705V193.75Z" fill="black"/>
<path d="M209.659 193.75H201.705V201.705H209.659V193.75Z" fill="black"/>
<path d="M217.614 193.75H209.659V201.705H217.614V193.75Z" fill="black"/>
<path d="M225.568 193.75H217.614V201.705H225.568V193.75Z" fill="black"/>
<path d="M249.432 193.75H241.477V201.705H249.432V193.75Z" fill="black"/>
<path d="M257.386 193.75H249.432V201.705H257.386V193.75Z" fill="black"/>
<path d="M26.7045 201.705H18.75V209.659H26.7045V201.705Z" fill="black"/>
<path d="M34.6591 201.705H26.7045V209.659H34.6591V201.705Z" fill="black"/>
<path d="M82.3864 201.705H74.4318V209.659H82.3864V201.705Z" fill="black"/>
<path d="M90.3409 201.705H82.3864V209.659H90.3409V201.705Z" fill="black"/>
<path d="M98.2955 201.705H90.3409V209.659H98.2955V201.705Z" fill="black"/>
<path d="M106.25 201.705H98.2955V209.659H106.25V201.705Z" fill="black"/>
<path d="M114.205 201.705H106.25V209.659H114.205V201.705Z" fill="black"/>
<path d="M146.023 201.705H138.068V209.659H146.023V201.705Z" fill="black"/>
<path d="M161.932 201.705H153.977V209.659H161.932V201.705Z" fill="black"/>
<path d="M177.841 201.705H169.886V209.659H177.841V201.705Z" fill="black"/>
<path d="M193.75 201.705H185.795V209.659H193.75V201.705Z" fill="black"/>
<path d="M201.705 201.705H193.75V209.659H201.705V201.705Z" fill="black"/>
<path d="M209.659 201.705H201.705V209.659H209.659V201.705Z" fill="black"/>
<path d="M217.614 201.705H209.659V209.659H217.614V201.705Z" fill="black"/>
<path d="M233.523 201.705H225.568V209.659H233.523V201.705Z" fill="black"/>
<path d="M241.477 201.705H233.523V209.659H241.477V201.705Z" fill="black"/>
<path d="M249.432 201.705H241.477V209.659H249.432V201.705Z" fill="black"/>
<path d="M257.386 201.705H249.432V209.659H257.386V201.705Z" fill="black"/>
<path d="M273.295 201.705H265.341V209.659H273.295V201.705Z" fill="black"/>
<path d="M281.25 201.705H273.295V209.659H281.25V201.705Z" fill="black"/>
<path d="M42.6136 209.659H34.6591V217.614H42.6136V209.659Z" fill="black"/>
<path d="M58.5227 209.659H50.5682V217.614H58.5227V209.659Z" fill="black"/>
<path d="M66.4773 209.659H58.5227V217.614H66.4773V209.659Z" fill="black"/>
<path d="M74.4318 209.659H66.4773V217.614H74.4318V209.659Z" fill="black"/>
<path d="M90.3409 209.659H82.3864V217.614H90.3409V209.659Z" fill="black"/>
<path d="M106.25 209.659H98.2955V217.614H106.25V209.659Z" fill="black"/>
<path d="M122.159 209.659H114.205V217.614H122.159V209.659Z" fill="black"/>
<path d="M130.114 209.659H122.159V217.614H130.114V209.659Z" fill="black"/>
<path d="M153.977 209.659H146.023V217.614H153.977V209.659Z" fill="black"/>
<path d="M161.932 209.659H153.977V217.614H161.932V209.659Z" fill="black"/>
<path d="M177.841 209.659H169.886V217.614H177.841V209.659Z" fill="black"/>
<path d="M201.705 209.659H193.75V217.614H201.705V209.659Z" fill="black"/>
<path d="M209.659 209.659H201.705V217.614H209.659V209.659Z" fill="black"/>
<path d="M217.614 209.659H209.659V217.614H217.614V209.659Z" fill="black"/>
<path d="M225.568 209.659H217.614V217.614H225.568V209.659Z" fill="black"/>
<path d="M233.523 209.659H225.568V217.614H233.523V209.659Z" fill="black"/>
<path d="M241.477 209.659H233.523V217.614H241.477V209.659Z" fill="black"/>
<path d="M249.432 209.659H241.477V217.614H249.432V209.659Z" fill="black"/>
<path d="M265.341 209.659H257.386V217.614H265.341V209.659Z" fill="black"/>
<path d="M273.295 209.659H265.341V217.614H273.295V209.659Z" fill="black"/>
<path d="M106.25 217.614H98.2955V225.568H106.25V217.614Z" fill="black"/>
<path d="M122.159 217.614H114.205V225.568H122.159V217.614Z" fill="black"/>
<path d="M146.023 217.614H138.068V225.568H146.023V217.614Z" fill="black"/>
<path d="M153.977 217.614H146.023V225.568H153.977V217.614Z" fill="black"/>
<path d="M161.932 217.614H153.977V225.568H161.932V217.614Z" fill="black"/>
<path d="M177.841 217.614H169.886V225.568H177.841V217.614Z" fill="black"/>
<path d="M209.659 217.614H201.705V225.568H209.659V217.614Z" fill="black"/>
<path d="M217.614 217.614H209.659V225.568H217.614V217.614Z" fill="black"/>
<path d="M249.432 217.614H241.477V225.568H249.432V217.614Z" fill="black"/>
<path d="M273.295 217.614H265.341V225.568H273.295V217.614Z" fill="black"/>
<path d="M281.25 217.614H273.295V225.568H281.25V217.614Z" fill="black"/>
<path d="M26.7045 225.568H18.75V233.523H26.7045V225.568Z" fill="black"/>
<path d="M34.6591 225.568H26.7045V233.523H34.6591V225.568Z" fill="black"/>
<path d="M42.6136 225.568H34.6591V233.523H42.6136V225.568Z" fill="black"/>
<path d="M50.5682 225.568H42.6136V233.523H50.5682V225.568Z" fill="black"/>
<path d="M58.5227 225.568H50.5682V233.523H58.5227V225.568Z" fill="black"/>
<path d="M66.4773 225.568H58.5227V233.523H66.4773V225.568Z" fill="black"/>
<path d="M74.4318 225.568H66.4773V233.523H74.4318V225.568Z" fill="black"/>
<path d="M90.3409 225.568H82.3864V233.523H90.3409V225.568Z" fill="black"/>
<path d="M98.2955 225.568H90.3409V233.523H98.2955V225.568Z" fill="black"/>
<path d="M130.114 225.568H122.159V233.523H130.114V225.568Z" fill="black"/>
<path d="M138.068 225.568H130.114V233.523H138.068V225.568Z" fill="black"/>
<path d="M146.023 225.568H138.068V233.523H146.023V225.568Z" fill="black"/>
<path d="M153.977 225.568H146.023V233.523H153.977V225.568Z" fill="black"/>
<path d="M161.932 225.568H153.977V233.523H161.932V225.568Z" fill="black"/>
<path d="M177.841 225.568H169.886V233.523H177.841V225.568Z" fill="black"/>
<path d="M193.75 225.568H185.795V233.523H193.75V225.568Z" fill="black"/>
<path d="M201.705 225.568H193.75V233.523H201.705V225.568Z" fill="black"/>
<path d="M209.659 225.568H201.705V233.523H209.659V225.568Z" fill="black"/>
<path d="M217.614 225.568H209.659V233.523H217.614V225.568Z" fill="black"/>
<path d="M233.523 225.568H225.568V233.523H233.523V225.568Z" fill="black"/>
<path d="M249.432 225.568H241.477V233.523H249.432V225.568Z" fill="black"/>
<path d="M265.341 225.568H257.386V233.523H265.341V225.568Z" fill="black"/>
<path d="M273.295 225.568H265.341V233.523H273.295V225.568Z" fill="black"/>
<path d="M26.7045 233.523H18.75V241.477H26.7045V233.523Z" fill="black"/>
<path d="M74.4318 233.523H66.4773V241.477H74.4318V233.523Z" fill="black"/>
<path d="M98.2955 233.523H90.3409V241.477H98.2955V233.523Z" fill="black"/>
<path d="M106.25 233.523H98.2955V241.477H106.25V233.523Z" fill="black"/>
<path d="M114.205 233.523H106.25V241.477H114.205V233.523Z" fill="black"/>
<path d="M169.886 233.523H161.932V241.477H169.886L169.886 233.523Z" fill="black"/>
<path d="M185.795 233.523H177.841V241.477H185.795V233.523Z" fill="black"/>
<path d="M201.705 233.523H193.75V241.477H201.705V233.523Z" fill="black"/>
<path d="M209.659 233.523H201.705V241.477H209.659V233.523Z" fill="black"/>
<path d="M217.614 233.523H209.659V241.477H217.614V233.523Z" fill="black"/>
<path d="M249.432 233.523H241.477V241.477H249.432V233.523Z" fill="black"/>
<path d="M257.386 233.523H249.432V241.477H257.386V233.523Z" fill="black"/>
<path d="M265.341 233.523H257.386V241.477H265.341V233.523Z" fill="black"/>
<path d="M273.295 233.523H265.341V241.477H273.295V233.523Z" fill="black"/>
<path d="M26.7045 241.477H18.75V249.432H26.7045V241.477Z" fill="black"/>
<path d="M42.6136 241.477H34.6591V249.432H42.6136V241.477Z" fill="black"/>
<path d="M50.5682 241.477H42.6136V249.432H50.5682V241.477Z" fill="black"/>
<path d="M58.5227 241.477H50.5682V249.432H58.5227V241.477Z" fill="black"/>
<path d="M74.4318 241.477H66.4773V249.432H74.4318V241.477Z" fill="black"/>
<path d="M106.25 241.477H98.2955V249.432H106.25V241.477Z" fill="black"/>
<path d="M122.159 241.477H114.205V249.432H122.159V241.477Z" fill="black"/>
<path d="M138.068 241.477H130.114V249.432H138.068V241.477Z" fill="black"/>
<path d="M153.977 241.477H146.023V249.432H153.977V241.477Z" fill="black"/>
<path d="M161.932 241.477H153.977V249.432H161.932V241.477Z" fill="black"/>
<path d="M169.886 241.477H161.932V249.432H169.886V241.477Z" fill="black"/>
<path d="M177.841 241.477H169.886V249.432H177.841V241.477Z" fill="black"/>
<path d="M209.659 241.477H201.705V249.432H209.659V241.477Z" fill="black"/>
<path d="M217.614 241.477H209.659V249.432H217.614V241.477Z" fill="black"/>
<path d="M225.568 241.477H217.614V249.432H225.568V241.477Z" fill="black"/>
<path d="M233.523 241.477H225.568V249.432H233.523V241.477Z" fill="black"/>
<path d="M241.477 241.477H233.523V249.432H241.477V241.477Z" fill="black"/>
<path d="M249.432 241.477H241.477V249.432H249.432V241.477Z" fill="black"/>
<path d="M273.295 241.477H265.341V249.432H273.295V241.477Z" fill="black"/>
<path d="M281.25 241.477H273.295V249.432H281.25V241.477Z" fill="black"/>
<path d="M26.7045 249.432H18.75V257.386H26.7045V249.432Z" fill="black"/>
<path d="M42.6136 249.432H34.6591V257.386H42.6136V249.432Z" fill="black"/>
<path d="M50.5682 249.432H42.6136V257.386H50.5682V249.432Z" fill="black"/>
<path d="M58.5227 249.432H50.5682V257.386H58.5227V249.432Z" fill="black"/>
<path d="M74.4318 249.432H66.4773V257.386H74.4318V249.432Z" fill="black"/>
<path d="M90.3409 249.432H82.3864V257.386H90.3409V249.432Z" fill="black"/>
<path d="M98.2955 249.432H90.3409V257.386H98.2955V249.432Z" fill="black"/>
<path d="M106.25 249.432H98.2955V257.386H106.25V249.432Z" fill="black"/>
<path d="M114.205 249.432H106.25V257.386H114.205V249.432Z" fill="black"/>
<path d="M122.159 249.432H114.205V257.386H122.159V249.432Z" fill="black"/>
<path d="M138.068 249.432H130.114V257.386H138.068V249.432Z" fill="black"/>
<path d="M146.023 249.432H138.068V257.386H146.023V249.432Z" fill="black"/>
<path d="M153.977 249.432H146.023V257.386H153.977V249.432Z" fill="black"/>
<path d="M161.932 249.432H153.977V257.386H161.932V249.432Z" fill="black"/>
<path d="M185.795 249.432H177.841V257.386H185.795V249.432Z" fill="black"/>
<path d="M193.75 249.432H185.795V257.386H193.75V249.432Z" fill="black"/>
<path d="M201.705 249.432H193.75V257.386H201.705V249.432Z" fill="black"/>
<path d="M209.659 249.432H201.705V257.386H209.659V249.432Z" fill="black"/>
<path d="M225.568 249.432H217.614V257.386H225.568V249.432Z" fill="black"/>
<path d="M241.477 249.432H233.523V257.386H241.477V249.432Z" fill="black"/>
<path d="M257.386 249.432H249.432V257.386H257.386V249.432Z" fill="black"/>
<path d="M265.341 249.432H257.386V257.386H265.341V249.432Z" fill="black"/>
<path d="M26.7045 257.386H18.75V265.341H26.7045V257.386Z" fill="black"/>
<path d="M42.6136 257.386H34.6591V265.341H42.6136V257.386Z" fill="black"/>
<path d="M50.5682 257.386H42.6136V265.341H50.5682V257.386Z" fill="black"/>
<path d="M58.5227 257.386H50.5682V265.341H58.5227V257.386Z" fill="black"/>
<path d="M74.4318 257.386H66.4773V265.341H74.4318V257.386Z" fill="black"/>
<path d="M98.2955 257.386H90.3409V265.341H98.2955V257.386Z" fill="black"/>
<path d="M146.023 257.386H138.068V265.341H146.023V257.386Z" fill="black"/>
<path d="M153.977 257.386H146.023V265.341H153.977V257.386Z" fill="black"/>
<path d="M169.886 257.386H161.932V265.341H169.886V257.386Z" fill="black"/>
<path d="M185.795 257.386H177.841V265.341H185.795V257.386Z" fill="black"/>
<path d="M241.477 257.386H233.523V265.341H241.477V257.386Z" fill="black"/>
<path d="M249.432 257.386H241.477V265.341H249.432V257.386Z" fill="black"/>
<path d="M257.386 257.386H249.432V265.341H257.386V257.386Z" fill="black"/>
<path d="M265.341 257.386H257.386V265.341H265.341V257.386Z" fill="black"/>
<path d="M281.25 257.386H273.295V265.341H281.25V257.386Z" fill="black"/>
<path d="M26.7045 265.341H18.75V273.295H26.7045V265.341Z" fill="black"/>
<path d="M74.4318 265.341H66.4773V273.295H74.4318V265.341Z" fill="black"/>
<path d="M90.3409 265.341H82.3864V273.295H90.3409V265.341Z" fill="black"/>
<path d="M106.25 265.341H98.2955V273.295H106.25V265.341Z" fill="black"/>
<path d="M114.205 265.341H106.25V273.295H114.205V265.341Z" fill="black"/>
<path d="M130.114 265.341H122.159V273.295H130.114V265.341Z" fill="black"/>
<path d="M161.932 265.341H153.977V273.295H161.932V265.341Z" fill="black"/>
<path d="M169.886 265.341H161.932V273.295H169.886V265.341Z" fill="black"/>
<path d="M177.841 265.341H169.886V273.295H177.841V265.341Z" fill="black"/>
<path d="M201.705 265.341H193.75V273.295H201.705V265.341Z" fill="black"/>
<path d="M217.614 265.341H209.659V273.295H217.614V265.341Z" fill="black"/>
<path d="M225.568 265.341H217.614V273.295H225.568V265.341Z" fill="black"/>
<path d="M233.523 265.341H225.568V273.295H233.523V265.341Z" fill="black"/>
<path d="M241.477 265.341H233.523V273.295H241.477V265.341Z" fill="black"/>
<path d="M249.432 265.341H241.477V273.295H249.432V265.341Z" fill="black"/>
<path d="M257.386 265.341H249.432V273.295H257.386V265.341Z" fill="black"/>
<path d="M26.7045 273.295H18.75V281.25H26.7045V273.295Z" fill="black"/>
<path d="M34.6591 273.295H26.7045V281.25H34.6591V273.295Z" fill="black"/>
<path d="M42.6136 273.295H34.6591V281.25H42.6136V273.295Z" fill="black"/>
<path d="M50.5682 273.295H42.6136V281.25H50.5682V273.295Z" fill="black"/>
<path d="M58.5227 273.295H50.5682V281.25H58.5227V273.295Z" fill="black"/>
<path d="M66.4773 273.295H58.5227V281.25H66.4773V273.295Z" fill="black"/>
<path d="M74.4318 273.295H66.4773V281.25H74.4318V273.295Z" fill="black"/>
<path d="M90.3409 273.295H82.3864V281.25H90.3409V273.295Z" fill="black"/>
<path d="M98.2955 273.295H90.3409V281.25H98.2955V273.295Z" fill="black"/>
<path d="M106.25 273.295H98.2955V281.25H106.25V273.295Z" fill="black"/>
<path d="M122.159 273.295H114.205V281.25H122.159V273.295Z" fill="black"/>
<path d="M161.932 273.295H153.977V281.25H161.932V273.295Z" fill="black"/>
<path d="M185.795 273.295H177.841V281.25H185.795V273.295Z" fill="black"/>
<path d="M193.75 273.295H185.795V281.25H193.75V273.295Z" fill="black"/>
<path d="M201.705 273.295H193.75V281.25H201.705V273.295Z" fill="black"/>
<path d="M217.614 273.295H209.659V281.25H217.614V273.295Z" fill="black"/>
<path d="M241.477 273.295H233.523V281.25H241.477V273.295Z" fill="black"/>
<path d="M257.386 273.295H249.432V281.25H257.386V273.295Z" fill="black"/>
<path d="M273.295 273.295H265.341V281.25H273.295V273.295Z" fill="black"/>
</g>
</g>
<defs>
<clipPath id="clip0_2_2">
<rect width="300" height="300" fill="white"/>
</clipPath>
<clipPath id="clip1_2_2">
<rect width="300" height="300" fill="white"/>
</clipPath>
</defs>
</svg>
